<?xml version="1.0" encoding="utf-8" ?>
<svg xmlns="http://www.w3.org/2000/svg" xmlns:xlink="http://www.w3.org/1999/xlink" width="706" height="323">
	<path fill="#334CF5" d="M251.78 109.038C252.425 109.022 253.077 109.019 253.719 109.081C256.46 109.344 259.522 110.491 261.276 112.703C263.065 114.959 263.614 118.093 263.302 120.9C262.561 127.561 258.051 133.678 253.011 137.797L249.582 139.828Q249.272 134.567 249.291 129.296Q249.043 129.167 248.803 129.023C245.947 127.318 243.645 124.856 242.896 121.524Q242.785 121.027 242.724 120.52Q242.663 120.014 242.653 119.504Q242.643 118.995 242.685 118.487Q242.726 117.978 242.818 117.477Q242.911 116.976 243.053 116.486Q243.195 115.996 243.386 115.524Q243.576 115.051 243.814 114.599Q244.051 114.148 244.332 113.723C246.118 111.015 248.687 109.69 251.78 109.038Z"/>
	<path fill="#334CF5" d="M136.118 59.1422C142.374 60.0319 155.477 59.5121 162.151 59.2075C160.366 69.7706 159.673 80.9811 158.943 91.6758C158.685 95.4604 158.761 99.3233 158.291 103.083C164.821 102.764 171.475 102.938 178.012 103.003C177.56 110.128 176.779 117.251 176.116 124.36C174.084 125.816 139.666 127.791 134.489 128.196C134.419 121.431 134.91 114.659 135.069 107.897L135.616 76.0107C135.767 70.3838 136.194 64.7741 136.118 59.1422Z"/>
	<path fill="#334CF5" d="M437.115 62.5472C444.848 62.8971 452.863 63.3912 460.558 64.2383C459.967 68.2158 439.184 94.8703 435.805 100.208C433.993 103.071 434.845 106.254 433.467 108.073C433.636 108.369 433.78 108.647 433.861 108.98C434.442 111.361 433.526 131.371 432.451 133.099C424.646 132.689 416.621 133.065 408.797 133.119C408.823 133.076 408.852 133.033 408.877 132.988C408.918 132.913 408.954 132.836 408.994 132.76C409.982 130.884 410.188 110.992 410.145 107.571C410.118 105.34 410.081 103.07 409.505 100.904C408.296 96.3627 397.477 67.6718 395.609 65.8505C402.968 64.8355 410.398 64.2126 417.713 62.9104Q418.253 62.8498 418.795 62.8023C419.965 62.7025 420.551 62.7352 421.458 63.5027C422.404 66.4488 425.41 81.7317 424.708 83.9536C424.855 83.8503 424.907 83.8186 425.056 83.6886C426.074 82.7977 437.028 63.6226 437.115 62.5472Z"/>
	<path fill="#334CF5" d="M309.074 58.3634C314.944 57.8845 326.097 57.6623 331.071 60.9937C331.664 61.3906 332.235 61.9006 332.356 62.6313C332.691 64.6443 330.992 80.7826 330.1 82.0341C329.63 81.5849 329.111 81.3808 328.509 81.1552C322.953 79.0715 313.933 77.9754 308.341 80.6033C307.27 81.1063 306.362 81.6609 305.956 82.82C307.066 87.4702 318.704 86.0629 322.367 86.8059C325.422 87.4258 328.455 88.8811 330.804 90.9354C334.572 94.2301 336.176 98.9611 336.459 103.832C336.846 110.493 334.567 118.297 330.028 123.297C324.519 129.366 316.098 131.631 308.176 132.036C300.039 132.149 292.397 128.867 285.036 125.792C285.289 118.915 286.313 111.947 287.049 105.103C293.234 108.469 299.437 110.056 306.444 110.361C308.674 110.458 311.242 110.392 312.956 108.736C313.64 108.076 313.824 107.425 313.84 106.495C312.323 101.842 303.236 103.201 299.317 102.419C296.942 101.945 294.731 100.92 292.762 99.5169C288.695 96.6188 286.147 92.2008 285.36 87.2992C284.326 80.8638 285.642 74.2463 289.511 68.9575C294.262 62.463 301.351 59.5443 309.074 58.3634Z"/>
	<path fill="#334CF5" d="M217.718 60.8194L222.762 60.519C226.554 72.0599 229.671 83.8816 233.027 95.5595C236.037 106.032 239.359 116.487 241.968 127.063C234.024 128.649 225.574 129.24 217.523 130.303L214.641 119.007C212.057 119.04 206.313 118.303 204.133 119.168C203.518 119.411 203.506 119.886 203.3 120.461C202.806 123.777 201.99 127.047 201.249 130.315C198.338 130.215 195.324 129.693 192.417 129.405C187.011 128.869 181.569 128.447 176.19 127.687C177.549 120.555 181.129 110.44 183.258 103.234C186.832 91.1313 190.02 78.7501 194.072 66.81C194.504 65.5357 195.167 63.2559 196.114 62.3041C197.008 61.4062 215.405 60.9572 217.718 60.8194ZM209.378 87.4377C208.647 89.5729 205.723 102.129 205.914 103.539C207.233 103.779 208.432 103.827 209.771 103.781C210.641 103.748 211.815 103.866 212.575 103.416C212.247 100.983 210.177 89.0444 209.378 87.4377Z"/>
	<path fill="#334CF5" d="M99.5077 64.258C107.62 64.3448 115.301 66.0934 121.6 71.4883C127.775 76.7769 130.989 84.4431 131.601 92.4458C132.325 101.914 129.902 111.414 123.606 118.686C118.123 125.018 110.847 128.357 102.555 128.98C94.2837 128.96 87.0528 127.242 80.6273 121.757Q80.032 121.239 79.4625 120.692Q78.8931 120.145 78.3507 119.572Q77.8084 118.998 77.2945 118.399Q76.7805 117.8 76.2962 117.176Q75.8119 116.553 75.3584 115.907Q74.9048 115.261 74.4831 114.593Q74.0614 113.926 73.6725 113.239Q73.2835 112.552 72.9284 111.847Q72.5732 111.142 72.2525 110.421Q71.9319 109.7 71.6465 108.964Q71.3612 108.228 71.1118 107.479Q70.8625 106.73 70.6497 105.969Q70.4369 105.209 70.2611 104.44Q70.0854 103.67 69.9471 102.893Q69.8089 102.116 69.7084 101.333Q69.6079 100.55 69.5455 99.7629C68.866 90.8802 71.8791 81.34 77.703 74.5685C83.4271 67.9132 90.9267 64.9275 99.5077 64.258ZM98.9058 86.2042C96.209 86.8547 94.2283 88.1851 92.7374 90.5662C90.9603 93.4043 90.5823 96.947 91.3428 100.173C92.0117 103.01 93.5507 105.772 96.1032 107.307C97.958 108.423 100.001 108.641 102.109 108.336C105.189 107.125 107.438 105.307 108.773 102.184C110.125 99.0195 110.12 95.1963 108.819 92.0158C107.851 89.649 106.101 87.6809 103.703 86.7103C102.15 86.0818 100.551 86.0268 98.9058 86.2042Z"/>
	<path fill="#334CF5" d="M366.551 64.2893Q366.754 64.2751 366.958 64.2665C375.306 63.901 384.085 66.3909 390.308 72.1179C396.533 77.8453 399.42 85.9796 399.731 94.2989C400.075 103.498 397.172 112.767 390.834 119.568C385.303 125.502 377.877 128.704 369.805 128.962C362.398 129.165 355.249 127.055 349.419 122.41C342.682 117.043 338.554 109.014 337.606 100.491C336.632 91.7225 339.552 82.2192 345.055 75.354C350.527 68.5282 358.023 65.2517 366.551 64.2893ZM366.113 86.3505C363.477 87.2349 361.492 88.9259 360.263 91.4378C358.691 94.6494 358.665 98.356 359.855 101.695C360.718 104.116 362.295 106.72 364.737 107.804C366.051 108.387 368.247 108.797 369.617 108.285C372.227 107.73 374.35 106.302 375.83 104.061C377.707 101.221 378.177 97.5468 377.479 94.2521C376.897 91.4973 375.435 88.9314 373.022 87.3975C370.84 86.0111 368.599 85.9271 366.113 86.3505Z"/>
	<path fill="#334CF5" d="M199.581 163.537C201.506 163.382 203.463 163.361 205.394 163.278C202.486 195.76 200.79 228.41 197.437 260.841L173.194 262.084L167.231 262.619C166.657 252.356 167.14 241.845 167.144 231.557L167.078 165.232C170.937 165.322 174.916 164.913 178.775 164.711Q189.182 164.199 199.581 163.537Z"/>
	<path fill="#334CF5" d="M42.3071 59.9825Q53.7326 59.8866 65.158 59.995C65.8165 77.7032 65.7981 95.4425 66.3811 113.162C66.571 118.934 66.2147 124.9 66.843 130.632C60.2599 130.801 48.1463 130.915 42.085 132.055Q41.6359 120.527 41.4712 108.992L30.6846 109.08C30.7753 116.256 30.5219 123.483 30.1625 130.649C25.6078 130.395 20.9414 130.6 16.3745 130.603C13.6229 130.6 10.7154 130.422 8.01028 130.966C8.32596 107.68 9.67658 84.3644 9.44422 61.0855C16.7109 62.0567 26.0173 61.8668 33.5859 62.3149C32.5536 73.835 33.4004 86.3897 31.5813 97.6572C35.1767 97.4836 38.8324 97.5839 42.4344 97.5676C42.0622 85.0522 42.7503 72.4995 42.3071 59.9825Z"/>
	<path fill="#334CF5" d="M317.9 159.996C330.118 159.801 342.436 159.72 354.651 160.001C354.77 160.266 354.878 160.536 354.962 160.815C355.536 162.718 351.231 202.928 350.926 207.975C350.747 210.941 350.891 220.715 349.667 223.003Q364.059 222.878 378.451 223.022C378.566 223.225 378.659 223.434 378.728 223.658C379.315 225.549 376.43 252.833 375.638 254.232L375.236 254.738C368.841 255.581 362.362 255.819 355.933 256.325Q335.75 257.84 315.585 259.587C315.208 254.751 315.683 249.778 315.885 244.937Q316.19 236.821 316.243 228.699L317.15 188.78C317.317 179.248 317.009 169.477 317.9 159.996Z"/>
	<path fill="#334CF5" d="M11.1624 159.981C23.7541 159.642 36.4616 159.881 49.0619 159.979C46.7617 174.776 45.7005 190.189 44.6349 205.127C44.2125 211.048 44.245 217.179 43.4636 223.042C53.1178 222.651 62.9944 222.868 72.6565 223.015C71.2416 233.313 71.0255 243.785 69.5599 254.068C69.5398 254.257 69.3753 254.494 69.2872 254.665C65.9976 255.611 57.6329 255.683 53.7255 255.995Q31.508 257.617 9.31936 259.597C8.73455 252.648 9.30835 245.252 9.41789 238.269L10.5949 185.238C10.8023 176.856 11.6675 168.351 11.1624 159.981Z"/>
	<path fill="#334CF5" d="M632.165 160.121C641.016 159.6 650.056 159.934 658.927 159.93C671.319 159.923 683.745 159.732 696.133 159.999C696.163 160.054 696.191 160.11 696.222 160.164C696.382 160.451 696.558 160.759 696.638 161.081C697.174 163.231 698.028 184.21 697.255 185.717C697.264 185.848 697.281 185.959 697.262 186.087C697.045 187.547 667.284 228.045 664.817 229.971Q680.617 229.863 696.417 229.985C696.561 230.215 696.686 230.409 696.74 230.68C697.094 232.461 696.709 256.162 696.488 259.064C696.445 259.633 696.287 260.077 696.01 260.573C692.936 260.368 689.697 260.642 686.609 260.702C668.392 261.937 649.975 261.529 631.802 263.105C631.913 262.91 632.001 262.718 632.069 262.503C632.576 260.908 629.842 236.488 629.044 235.106C631.062 233.53 634.281 228.342 636 226.097L657.713 197.791C659.196 195.867 666.035 188.126 666.351 186.26C663.226 186.928 659.574 186.853 656.36 187.104Q644.166 187.962 631.983 188.956C633.124 187.357 632.26 163.829 632.165 160.121Z"/>
	<path fill="#334CF5" d="M563.618 161.499C566.374 160.71 576.468 161.395 580.113 161.399C596.617 161.415 613.161 161.618 629.66 161.272C629.786 161.489 629.915 161.735 629.967 161.982C630.481 164.422 628.868 186.573 627.855 188.301Q619.202 188.453 610.566 189.002C606.354 189.232 602.059 189.654 597.849 189.402C598.163 191.911 598.112 196.129 597.182 198.444C604.219 198.24 611.269 198.524 618.307 198.215C618.354 198.306 618.403 198.395 618.448 198.487C618.663 198.935 618.746 199.447 618.724 199.942C618.624 202.157 617.694 220.176 617.408 220.996L595.11 221.085C595.198 221.261 595.276 221.429 595.346 221.613C596.174 223.806 595.631 229.934 594.687 231.982L601.806 231.963Q613.252 231.854 624.697 232.013C624.863 232.271 625.002 232.54 625.079 232.839C625.551 234.667 624.011 258.959 623.584 261.967C623.507 262.509 623.293 262.954 623.006 263.414C602.338 263.231 581.658 264.918 560.998 264.591C561.092 264.429 561.117 264.393 561.202 264.204C562.15 262.091 562.003 255.692 562.091 253.198C562.508 241.389 562.303 229.543 562.664 217.725L563.547 179.182C563.649 173.884 564.067 168.484 563.977 163.199C563.967 162.589 563.84 162.062 563.618 161.499Z"/>
	<path fill="#334CF5" d="M247.686 158.716C256.246 157.475 270.242 159.433 277.61 163.904C276.871 173.642 275.769 183.347 274.977 193.079C273.005 192.267 270.873 191.679 268.808 191.16C262.079 189.467 248.756 187.284 242.622 191.076C241.391 191.837 239.929 193.145 239.661 194.645C239.518 195.442 239.858 196.161 240.381 196.738C243.684 200.386 254.708 199.344 259.222 199.69C266.107 200.218 272.899 202.994 277.436 208.332C282.457 214.24 283.916 222.135 283.27 229.698C282.432 239.498 278.611 248.837 270.942 255.243C261.46 263.163 248.111 265.798 236.053 264.722C226.372 263.393 216.968 259.885 208.178 255.689C208.612 251.865 210.404 229.401 211.684 227.444C213.684 226.444 216.862 228.773 218.818 229.602C225.929 232.615 234.256 233.747 241.942 233.551C244.477 233.487 247.699 233.138 249.5 231.157C250.247 230.336 250.691 229.19 250.612 228.074C250.194 222.134 231.484 223.037 227.14 221.855C223.637 220.902 219.99 218.669 217.299 216.258C211.662 211.209 208.738 203.837 208.341 196.368Q208.291 195.538 208.283 194.706Q208.274 193.875 208.307 193.044Q208.341 192.213 208.415 191.385Q208.49 190.556 208.605 189.733Q208.721 188.909 208.878 188.093Q209.034 187.276 209.231 186.468Q209.429 185.66 209.666 184.863Q209.903 184.066 210.18 183.282Q210.456 182.498 210.772 181.728Q211.087 180.959 211.44 180.206Q211.794 179.453 212.184 178.719Q212.575 177.985 213.001 177.271Q213.428 176.557 213.89 175.866Q214.352 175.174 214.847 174.506Q215.343 173.839 215.871 173.196Q216.399 172.554 216.959 171.939C224.883 163.157 236.111 159.311 247.686 158.716Z"/>
	<path fill="#334CF5" d="M126.348 164.288C137.649 164.799 149.106 164.422 160.421 164.34C160.895 173.578 161.339 182.923 160.878 192.168C159.857 212.626 154.743 237.178 141.577 253.44C135.671 260.735 127.155 265.799 117.766 266.781C108.367 267.764 98.7436 265.844 91.3138 259.777C80.1724 250.679 76.3398 234.772 74.9449 221.046C74.3724 218.673 74.4319 215.715 74.3335 213.253Q74.1482 207.376 74.2954 201.499Q74.4426 195.621 74.9218 189.761Q75.4009 183.901 76.2106 178.077Q77.0202 172.254 78.1577 166.485C89.3267 167.374 100.535 167.371 111.719 167.935C109.439 183.464 106.58 199.305 107.119 215.055C107.332 221.268 108.139 234.792 112.883 239.042C113.504 239.598 114.231 239.935 115.086 239.857C116.522 239.725 117.915 238.437 118.786 237.376C128.172 225.939 127.809 179.135 126.348 164.288Z"/>
	<path fill="#334CF5" d="M507.369 159.432C508.703 159.351 510.046 159.345 511.383 159.33C524.737 159.184 539.341 162.141 549.187 171.832C555.526 178.071 558.643 186.424 558.701 195.25C558.758 203.919 555.814 212.483 549.629 218.687C539.241 229.107 522.606 231.991 508.422 232.015C508.632 232.328 508.813 232.668 508.883 233.043C509.291 235.234 509.291 246.141 508.324 247.679C508.458 247.905 508.573 248.135 508.667 248.38C509.174 249.713 509.43 263.75 508.8 265.083C497.486 264.794 486.042 264.973 474.724 265.149C474.855 264.949 474.977 264.745 475.074 264.525C475.865 262.726 475.606 191.872 475.671 183.985C475.717 178.492 476.107 172.984 476.074 167.501C476.068 166.581 475.992 165.775 475.642 164.914C486.384 162.228 496.293 160.261 507.369 159.432ZM513.499 188.39L510.534 188.775C510.745 192.537 510.981 206.975 509.139 209.716C509.102 209.77 509.069 209.826 509.034 209.88C511.646 209.803 518.319 210.138 520.072 208.122C520.177 208.002 520.201 207.957 520.279 207.833C522.471 207.06 524.767 204.592 525.757 202.552C526.983 200.025 527.187 196.988 526.219 194.344Q526.062 193.914 525.862 193.502Q525.663 193.09 525.423 192.699Q525.184 192.309 524.907 191.945Q524.629 191.58 524.317 191.246Q524.005 190.911 523.66 190.609Q523.316 190.307 522.943 190.041Q522.571 189.775 522.173 189.547Q521.776 189.32 521.358 189.133C518.753 187.954 516.256 188.167 513.499 188.39Z"/>
	<path fill="#334CF5" d="M419.9 167.703C432.393 166.638 445.336 169.456 455.241 177.406C464.238 184.628 469.123 195.339 470.357 206.665C471.871 220.568 468.436 234.358 459.572 245.307C452.218 254.39 441.392 259.588 429.885 260.779C429.719 260.82 429.679 260.834 429.485 260.857C418.449 262.193 406.411 258.497 397.629 251.835C388.158 244.65 381.858 233.373 380.301 221.609Q380.141 220.377 380.041 219.139Q379.942 217.901 379.903 216.659Q379.864 215.418 379.887 214.176Q379.909 212.934 379.992 211.694Q380.075 210.455 380.219 209.221Q380.363 207.988 380.568 206.762Q380.772 205.537 381.036 204.323Q381.3 203.11 381.624 201.91Q381.947 200.711 382.329 199.529Q382.711 198.347 383.151 197.185Q383.59 196.023 384.086 194.885Q384.582 193.746 385.134 192.633Q385.685 191.519 386.29 190.435Q386.895 189.35 387.553 188.296Q388.211 187.243 388.919 186.222Q389.628 185.202 390.386 184.218C397.574 174.905 408.3 169.172 419.9 167.703ZM421.727 199.418C417.667 200.899 414.514 203.436 412.669 207.436C410.638 211.839 410.709 217.29 412.424 221.781C413.773 225.317 416.121 228.569 419.644 230.176C421.932 231.219 424.396 231.441 426.848 230.922C430.126 230.517 433.246 228.358 435.238 225.785C438.228 221.92 439.104 216.88 438.46 212.114C437.895 207.943 435.905 203.982 432.468 201.448C429.098 198.962 425.682 198.96 421.727 199.418Z"/>
</svg>
