<?xml version="1.0" encoding="utf-8" ?>
<svg xmlns="http://www.w3.org/2000/svg" xmlns:xlink="http://www.w3.org/1999/xlink" width="754" height="345">
	<path fill="#525151" d="M359.856 44.7274C361.175 44.4583 362.183 44.5438 363.462 44.9377C366.646 45.918 368.987 48.5461 370.49 51.4258C371.629 53.607 372.385 55.8852 371.629 58.3107C370.801 59.2431 370.505 59.2401 369.334 59.5521C366.641 59.4889 367.556 53.0435 363.959 50.4138C362.25 48.854 359.554 49.3897 358.419 47.0335C358.685 45.8491 359.041 45.5958 359.856 44.7274Z"/>
	<path fill="#525151" d="M293.17 103.649C296.498 103.973 296.192 109.835 299.318 113.441C300.561 113.992 301.948 114.217 303.191 114.772C304.12 115.187 304.425 115.537 304.814 116.452C304.678 117.677 304.112 118.262 303.32 119.144C299.955 118.913 297.448 117.92 295.066 115.432C292.821 113.088 291.341 110.109 291.421 106.828C291.462 105.173 292.047 104.732 293.17 103.649Z"/>
	<path fill="#525151" d="M359.627 33.3147Q360.3 33.2589 360.976 33.2545Q361.651 33.2501 362.325 33.297Q362.999 33.3439 363.667 33.4419Q364.335 33.5399 364.994 33.6885Q365.653 33.837 366.299 34.0352Q366.945 34.2333 367.574 34.48Q368.202 34.7267 368.811 35.0205Q369.419 35.3142 370.003 35.6534C376.023 39.1168 379.919 45.0606 381.652 51.6816C382.198 53.7686 383.122 57.8903 381.873 59.776C381.395 60.4983 380.798 60.4866 380.013 60.6856C379.962 60.6716 379.908 60.6649 379.859 60.6437C377.121 59.458 377.258 53.0102 376.271 50.2503C374.077 44.115 370.818 40.5075 364.56 38.5518C362.976 38.0568 360.92 37.714 359.477 36.9335C358.673 36.4989 358.561 36.0399 358.277 35.2219C358.573 34.176 358.836 34.0033 359.627 33.3147Z"/>
	<path fill="#525151" d="M282.263 102.871L284.039 103.181C286.19 104.857 286.431 111.677 287.46 114.452C289.512 119.988 293.223 123.378 298.834 125.067C300.362 125.527 302.331 125.809 303.728 126.541C304.552 126.973 304.63 127.393 304.912 128.207C304.779 129.341 304.382 129.804 303.641 130.62C297.975 130.023 293.264 128.728 288.982 124.769C283.597 119.791 281.178 112.965 280.995 105.751C280.962 104.443 281.39 103.788 282.263 102.871Z"/>
	<path fill="#3740FE" d="M424.918 106.224C427.232 105.922 429.564 106.022 431.788 106.781Q432.31 106.959 432.812 107.188Q433.314 107.417 433.79 107.695Q434.266 107.973 434.712 108.298Q435.158 108.623 435.569 108.991Q435.98 109.358 436.352 109.766Q436.724 110.173 437.054 110.615Q437.383 111.058 437.666 111.531Q437.95 112.005 438.184 112.504C440.009 116.348 439.487 120.431 438.066 124.292C436.334 129 432.325 135.769 427.58 137.955C427.164 138.556 426.423 139.229 425.839 139.668C425.247 140.114 425.07 140.255 424.312 140.14C421.953 137.546 424.622 131.731 422.958 128.897C420.169 126.224 417.788 125.402 416.365 121.317C415.381 118.491 415.572 115.505 416.872 112.817C418.553 109.341 421.386 107.437 424.918 106.224Z"/>
	<path fill="#3740FE" d="M154.393 48.9717L184.093 48.9728C182.738 59.1005 181.763 69.441 181.039 79.6325C180.614 85.6149 180.736 92.1074 179.613 97.9819Q191.059 97.8703 202.504 98.0019C201.664 105.737 201.084 113.496 200.15 121.221C200.185 121.769 200.073 121.895 199.823 122.37C197.543 123.57 159.725 125.773 153.102 126.49C153.079 100.633 154.425 74.8188 154.393 48.9717Z"/>
	<path fill="#3740FE" d="M659.845 52.7129C668.594 52.68 677.691 53.8914 686.438 54.5433C686.628 57.078 681.079 63.5011 679.565 65.6085L664.353 86.6956C662.023 89.9196 658.999 93.3173 657.254 96.8644C655.802 99.8147 657.361 103.516 655.964 106.383C655.929 106.455 655.891 106.526 655.854 106.598C655.948 106.829 655.968 106.854 656.028 107.086C656.346 108.311 655.691 131.307 655.303 132.022Q641.537 132.005 627.771 132.162C627.798 132.118 627.826 132.075 627.851 132.03C627.891 131.955 627.926 131.877 627.965 131.802C628.935 129.93 629.227 105.565 629.149 101.994C629.105 99.9766 629.092 97.9005 628.548 95.944C627.268 91.3369 614.572 58.0361 612.632 56.1788C621.944 55.6602 631.456 53.9348 640.731 52.8362L641.599 52.8968C641.662 52.9789 641.727 53.0589 641.787 53.1431C643.093 54.9711 646.187 74.3349 645.814 76.7043C647.089 75.7035 659.567 54.474 659.845 52.7129Z"/>
	<path fill="#3740FE" d="M516.199 48.0495Q516.652 48.022 517.105 48.0063C522.713 47.8172 535.782 47.9226 539.99 51.8486C540.184 52.2165 540.347 52.605 540.377 53.0244C540.581 55.8726 539.148 72.9761 537.738 74.5563C535.989 73.4898 533.021 72.9463 530.99 72.5612C526.09 71.6323 516.75 70.2487 512.486 73.3634C511.709 73.9304 511.246 74.7129 511.16 75.6684C511.092 76.4373 511.438 77.2858 511.94 77.854C513.783 79.9395 518.719 79.5668 521.336 79.6644C528.437 79.9294 534.906 80.7039 539.973 86.2206C544.112 90.7284 545.256 96.6981 544.966 102.649C544.602 110.122 541.634 117.748 535.981 122.804C528.624 129.384 518.478 131.373 508.893 130.865C500.585 130.073 493.379 126.492 485.654 123.724C485.933 123.288 486.131 122.828 486.288 122.335C487.03 119.999 489.082 102.444 488.212 100.773C490.621 101.463 492.994 102.754 495.323 103.695C500.694 105.864 506.663 106.64 512.438 106.547C514.655 106.511 517.157 106.347 518.742 104.549C519.3 103.917 519.581 103.149 519.426 102.301C518.524 97.369 506.686 98.4734 502.912 97.7304C499.685 97.095 496.612 95.7955 494.071 93.6858C489.524 89.9098 486.979 83.9528 486.48 78.1438Q486.419 77.494 486.39 76.8421Q486.362 76.1901 486.366 75.5375Q486.37 74.8848 486.406 74.2333Q486.443 73.5817 486.512 72.9327Q486.581 72.2838 486.682 71.6391Q486.783 70.9944 486.917 70.3555Q487.05 69.7167 487.216 69.0854Q487.381 68.454 487.577 67.8317Q487.774 67.2093 488.001 66.5976Q488.228 65.9859 488.486 65.3863Q488.744 64.7867 489.031 64.2007Q489.318 63.6147 489.634 63.0438Q489.95 62.4728 490.295 61.9184Q490.639 61.364 491.011 60.8275Q491.382 60.291 491.78 59.7737Q492.178 59.2564 492.601 58.7596C498.535 51.7626 507.291 48.7439 516.199 48.0495Z"/>
	<path fill="#3740FE" d="M214.073 174.383L214.318 174.345L214.851 174.758C214.883 177.099 214.383 179.369 214.217 181.694Q213.568 191.286 212.735 200.863L208.767 250.028C208.048 258.919 207.044 267.893 206.698 276.8C203.021 276.663 199.181 277.065 195.498 277.248C188.963 277.573 182.412 277.846 175.892 278.405C175.451 278.375 175.102 278.123 174.728 277.908C173.823 274.03 174.577 255.008 174.589 249.395L174.567 176.463C187.681 176.321 200.981 175.186 214.073 174.383Z"/>
	<path fill="#3740FE" d="M244.931 50.5932C247.828 50.3989 250.703 50.3829 253.603 50.394C255.502 58.3451 258.136 66.2281 260.421 74.0868L275.188 125.143C265.919 126.327 256.59 127.307 247.369 128.818Q245.599 122.412 244.033 115.953C239.797 116.1 235.534 116.009 231.295 116.001C230.987 120.278 229.611 124.646 228.808 128.87C221.616 127.307 207.989 126.439 200.325 126.11C201.123 119.701 205.381 107.996 207.364 101.31C212.262 84.8006 216.814 67.9758 222.344 51.6768Q233.645 51.2817 244.931 50.5932ZM237.542 80.4984C236.561 86.6317 235.56 93.0816 233.837 99.0481L238.121 98.9827C239.254 98.9909 240.779 99.2356 241.744 98.6692C241.219 95.5274 239.156 82.308 237.542 80.4984Z"/>
	<path fill="#3740FE" d="M577.009 55.7813Q578.048 55.6552 579.094 55.6C588.968 55.0836 599.15 57.6167 606.59 64.4017C613.391 70.6045 616.831 79.5369 617.193 88.6276C617.607 99.0263 614.618 109.342 607.413 117.063C601.675 123.211 593.47 127.547 584.959 127.844C576.536 128.905 567.244 126.214 560.522 121.101Q559.813 120.555 559.131 119.975Q558.45 119.395 557.798 118.782Q557.146 118.169 556.524 117.525Q555.903 116.881 555.314 116.207Q554.725 115.533 554.17 114.831Q553.615 114.129 553.095 113.4Q552.575 112.672 552.092 111.919Q551.608 111.166 551.162 110.39Q550.716 109.614 550.309 108.817Q549.901 108.02 549.534 107.204Q549.166 106.388 548.839 105.555Q548.511 104.722 548.225 103.874Q547.939 103.026 547.695 102.165Q547.452 101.304 547.25 100.432Q547.049 99.56 546.89 98.6791Q546.732 97.7983 546.617 96.9107C545.319 87.1541 548.206 76.8754 554.175 69.0859C559.813 61.7291 567.812 56.9964 577.009 55.7813ZM578.353 80.4508C574.869 82.3208 572.509 84.3865 571.34 88.3553C570.266 92.0008 570.816 96.2511 572.655 99.5625C573.97 101.928 576.025 103.717 578.651 104.468C580.233 104.92 581.993 104.855 583.602 104.562C586.36 103.906 588.781 101.984 590.261 99.5733Q590.624 98.9726 590.926 98.3389Q591.228 97.7052 591.465 97.0447Q591.703 96.3842 591.874 95.7034Q592.044 95.0226 592.147 94.3282Q592.249 93.6338 592.282 92.9326Q592.316 92.2315 592.279 91.5305Q592.243 90.8296 592.137 90.1357Q592.031 89.4418 591.857 88.7618C591.074 85.7671 589.216 82.9818 586.519 81.401C583.912 79.8739 581.233 79.9658 578.353 80.4508Z"/>
	<path fill="#3740FE" d="M110.043 55.7298C118.425 54.4164 128.904 57.0099 135.807 61.8919C143.052 67.0165 147.444 74.9182 148.902 83.5838C150.699 94.2671 148.561 105.104 142.236 113.97C136.44 122.094 128.303 126.164 118.642 127.8C109.055 128.779 99.6329 126.54 92.0152 120.523C84.4898 114.579 79.8722 105.592 78.7859 96.1064C77.6591 86.2669 80.8472 75.9632 87.0334 68.2703Q87.5577 67.6124 88.1142 66.9815Q88.6706 66.3506 89.2578 65.7483Q89.845 65.1459 90.4615 64.5735Q91.0779 64.0011 91.7222 63.4602Q92.3664 62.9193 93.0368 62.4111Q93.7072 61.903 94.4021 61.4289Q95.097 60.9548 95.8147 60.5159Q96.5323 60.077 97.2709 59.6744Q98.0096 59.2719 98.7673 58.9066Q99.5251 58.5414 100.3 58.2144Q101.075 57.8873 101.866 57.5994Q102.656 57.3114 103.46 57.0631Q104.263 56.8149 105.078 56.607Q105.894 56.3992 106.718 56.2322Q107.543 56.0652 108.374 55.9395Q109.206 55.8139 110.043 55.7298ZM111.044 80.4146C107.897 81.6118 105.47 83.6859 104.09 86.8006C102.602 90.1563 102.704 94.1769 104.023 97.5694C105.157 100.486 107.246 102.924 110.167 104.131C112.244 104.99 114.467 104.831 116.643 104.516C119.887 103.036 122.375 100.596 123.644 97.2315C124.955 93.7567 124.837 89.6632 123.234 86.3021C121.956 83.6208 119.775 81.4857 116.93 80.5463C114.932 79.8867 113.078 80.1556 111.044 80.4146Z"/>
	<path fill="#3740FE" d="M48.0826 50.9477C56.7088 51.197 65.3571 50.7386 73.992 51.0228C73.6986 62.2209 74.433 73.4941 74.59 84.7005Q74.7178 101.244 75.3691 117.775C75.5119 122.063 75.39 126.37 75.7401 130.647C66.2646 130.836 56.7499 131.512 47.2794 131.959C47.5863 123.342 47.1902 114.653 47.2519 106.026L34.6137 106.074C34.6287 114.309 34.2705 122.499 33.9189 130.723C28.5015 130.453 23.0067 130.623 17.5798 130.613L8.48566 130.556C8.38027 125.606 9.08124 120.544 9.15858 115.571L10.5666 52.2503C19.6171 52.7337 28.7776 53.4968 37.838 53.3993C36.7163 62.387 36.8617 71.8459 36.5473 80.9061C36.4064 84.9685 36.431 89.2837 35.6773 93.2827C39.8359 93.2182 44.0028 93.1701 48.157 93.3958C47.686 79.2797 48.3644 65.082 48.0826 50.9477Z"/>
	<path fill="#3740FE" d="M333.105 170.938L371.725 170.929C371.753 170.98 371.788 171.029 371.81 171.083C372.405 172.57 370.73 184.736 370.473 187.306Q369.206 199.413 368.199 211.544C367.856 215.837 367.219 234.757 366.256 237.088C374.853 236.524 387.727 236.542 396.371 236.976C396.481 237.166 396.578 237.353 396.645 237.564C397.202 239.303 394.193 267.691 393.44 269.342L393.478 270.071C393.335 270.173 393.026 270.46 392.874 270.501C390.908 271.037 381.269 271.267 378.503 271.484L330.411 275.191L332.106 201.555C332.236 195.526 331.848 175.287 333.105 170.938Z"/>
	<path fill="#3740FE" d="M11.502 170.97Q31.2498 170.852 50.9972 170.983C48.8577 186.775 47.5471 202.863 46.3903 218.758C45.9476 224.84 46.0113 231.069 45.3157 237.11C53.7886 236.514 67.2029 236.586 75.7255 237.076C74.4825 247.714 73.7954 258.419 72.6294 269.067L72.3976 270.037C71.5422 270.736 15.5937 274.74 9.29824 275.192C8.95401 262.293 9.78616 249.282 10.1005 236.385L11.502 170.97Z"/>
	<path fill="#3740FE" d="M665.184 171.027C678.212 170.638 691.327 170.91 704.364 170.902C712.403 170.897 720.944 170.322 728.925 171.071C728.948 171.113 728.974 171.154 728.995 171.197C729.03 171.269 729.061 171.343 729.095 171.415C729.964 173.294 730.581 193.538 730.391 196.778C730.377 197.025 730.374 197.27 730.319 197.514C729.803 199.791 698.14 242.588 695.851 244.06C705.952 243.837 719.145 243.292 729.008 244.071C729.207 244.415 729.415 244.772 729.496 245.167C729.964 247.458 729.181 271.081 728.896 274.303C728.846 274.878 728.631 275.359 728.343 275.851C724.361 276.148 720.345 276.253 716.355 276.438C701.886 276.633 687.337 277.54 672.877 278.168C670.487 278.272 664.66 277.916 662.745 278.517C662.678 278.538 662.616 278.571 662.551 278.598C660.639 277.787 660.519 253.282 658.779 249.466C658.746 249.393 658.71 249.321 658.676 249.249C658.768 249.186 658.949 249.069 659.041 248.986C661.067 247.17 668.219 236.919 670.321 234.173C679.128 222.664 688.402 211.381 696.957 199.699C697.297 199.235 697.42 198.853 697.488 198.281C685.735 200.047 673.4 200.301 661.525 201.147C663.16 198.756 662.202 175.364 661.768 171.233C662.865 171.058 664.069 171.086 665.184 171.027Z"/>
	<path fill="#3740FE" d="M590.052 172.5C596.604 171.83 603.68 172.362 610.281 172.367C626.529 172.381 642.894 172.777 659.131 172.244C659.218 172.382 659.261 172.444 659.336 172.603C660.153 174.334 658.432 198.495 657.668 200.567C647.044 200.716 636.365 201.522 625.752 202.061C625.901 202.36 626 202.552 626.049 202.886C626.351 204.937 626.071 209.709 624.753 211.372C632.279 211.168 639.858 211.643 647.373 211.166C647.468 211.35 647.54 211.513 647.603 211.71C648.029 213.038 646.643 233.617 645.877 235.046C638.381 234.617 630.579 235.025 623.062 235.104C623.288 235.504 623.482 235.931 623.542 236.391C623.89 239.049 623.666 244.338 622.099 246.439C625.402 246.301 628.739 246.393 632.046 246.39Q643.214 246.458 654.38 246.28C654.481 246.472 654.475 246.444 654.553 246.692C654.962 247.986 653.336 274.655 652.919 277.481C652.816 278.175 652.58 278.767 652.228 279.368C646.673 279.791 640.855 279.543 635.267 279.653L605.626 280.393C599.678 280.499 593.563 280.298 587.652 280.988C587.927 280.474 588.104 279.863 588.14 279.279C588.617 271.692 588.422 263.93 588.579 256.321L589.578 210.435C589.77 201.063 590.181 191.713 590.28 182.333C590.312 179.338 590.814 175.374 590.052 172.5Z"/>
	<path fill="#3740FE" d="M255.937 169.505C267.442 168.28 280.148 169.409 290.545 174.67C289.335 184.693 288.166 195.18 287.817 205.263C281.916 203.063 274.972 201.442 268.695 201.216C264.133 201.051 255.665 200.63 252.145 204.058C251.417 204.767 251.026 205.642 251.026 206.662C251.03 212.919 263.819 212.032 268.013 212.198C270.749 212.307 273.486 212.495 276.167 213.081C280.978 214.134 285.436 216.421 288.935 219.911C294.329 225.291 296.493 233.021 296.493 240.486C296.493 250.924 293.02 261.387 285.529 268.845C276.286 278.048 262.871 281.014 250.249 280.97C239.126 280.785 228.163 275.605 217.996 271.562C218.422 261.165 220.02 250.589 221.136 240.232C230.087 245.644 243.772 249.109 254.287 247.991C256.791 247.725 260.221 246.919 261.828 244.834C262.328 244.185 262.554 243.418 262.438 242.602C261.472 235.824 244.943 237.151 239.873 236.093Q238.346 235.772 236.864 235.283Q235.382 234.793 233.964 234.141Q232.546 233.489 231.21 232.683Q229.874 231.877 228.636 230.927C222.626 226.252 219.217 219.282 218.319 211.799C217.222 202.648 219.096 192.925 224.889 185.596C232.771 175.625 243.516 170.95 255.937 169.505Z"/>
	<path fill="#3740FE" d="M132.232 175.233C144.025 175.729 155.954 175.383 167.759 175.265C168.031 183.498 168.749 191.653 168.539 199.908C167.954 222.891 162.584 251.658 147.351 269.643C141.049 277.085 131.828 282.131 122.072 282.896C112.215 283.669 102.675 281.509 95.0605 274.986C84.2245 265.702 79.6517 249.865 78.5973 236.054C77.9873 232.76 77.8513 229.332 77.6872 225.988C77.3809 219.745 78.6352 181.676 82.0447 178.264C82.811 177.497 113.153 178.962 117.017 179.121C113.369 197.261 109.301 227.153 113.879 245.129C114.945 249.311 116.579 252.666 120.385 254.92C121.643 254.156 122.817 253.498 123.787 252.357C131.808 242.931 133.166 211.213 133.21 198.481C133.236 190.728 132.755 182.967 132.232 175.233Z"/>
	<path fill="#3740FE" d="M527.471 170.29Q532.857 170.008 538.249 170.066C551.536 170.212 565.958 173.611 575.527 183.462C582.269 190.403 585.111 199.284 584.93 208.857C584.76 217.823 581.642 226.455 575.087 232.74C564.477 242.914 546.591 246.48 532.299 246.168C532.481 246.469 532.668 246.809 532.758 247.153C533.341 249.375 533.455 257.179 532.3 259.026C532.331 259.088 532.36 259.149 532.392 259.21C532.502 259.42 532.612 259.628 532.699 259.849C533.382 261.597 533.363 279.647 532.664 281.155C528.968 280.568 524.561 280.992 520.797 280.996C513.019 281.003 505.128 280.764 497.371 281.278C497.532 281.016 497.671 280.753 497.773 280.463C498.395 278.71 498.536 187.567 498.419 177.569C498.412 176.922 498.298 176.444 498.019 175.855C507.594 172.794 517.505 171.317 527.471 170.29ZM536.956 200.482C535.94 200.638 535.493 200.501 534.858 201.342C534.126 206.384 535.409 219.53 533.227 223.112C535.89 222.962 542.819 223.125 544.55 220.999C544.62 220.914 544.681 220.823 544.746 220.734C547.548 219.457 549.927 216.979 551.023 214.079Q551.208 213.6 551.345 213.105Q551.482 212.61 551.568 212.104Q551.655 211.599 551.692 211.086Q551.728 210.574 551.714 210.061Q551.699 209.548 551.634 209.039Q551.568 208.53 551.453 208.029Q551.337 207.529 551.173 207.043Q551.008 206.557 550.796 206.089Q550.587 205.637 550.335 205.208Q550.082 204.778 549.788 204.376Q549.495 203.974 549.162 203.603Q548.83 203.232 548.463 202.896Q548.095 202.56 547.696 202.262Q547.297 201.964 546.87 201.707Q546.444 201.45 545.994 201.236Q545.544 201.023 545.075 200.855C542.373 199.872 539.744 200.218 536.956 200.482Z"/>
	<path fill="#3740FE" d="M440.785 179.127C453.829 178.332 467.579 181.543 477.522 190.367C487.172 198.931 491.709 210.915 492.446 223.597C493.255 237.522 488.908 251.536 479.554 262.004Q478.802 262.834 478.009 263.627Q477.217 264.419 476.387 265.172Q475.556 265.925 474.69 266.635Q473.823 267.346 472.923 268.014Q472.023 268.681 471.091 269.303Q470.159 269.925 469.197 270.501Q468.236 271.076 467.247 271.604Q466.259 272.132 465.245 272.61Q464.232 273.088 463.196 273.516Q462.16 273.944 461.105 274.321Q460.049 274.697 458.977 275.021Q457.904 275.345 456.817 275.616Q455.729 275.887 454.63 276.104Q453.531 276.321 452.422 276.483Q451.313 276.646 450.198 276.754Q449.082 276.862 447.963 276.915Q446.888 276.988 445.811 277.012Q444.734 277.036 443.657 277.011Q442.579 276.986 441.504 276.913Q440.43 276.84 439.359 276.718Q438.289 276.596 437.225 276.425Q436.161 276.255 435.106 276.037Q434.051 275.819 433.006 275.553Q431.962 275.287 430.931 274.975Q429.9 274.662 428.884 274.303Q427.868 273.944 426.87 273.539Q425.871 273.135 424.892 272.685Q423.913 272.236 422.955 271.743Q421.997 271.25 421.062 270.714Q420.127 270.178 419.218 269.6Q418.308 269.022 417.426 268.404Q416.544 267.786 415.69 267.128C405.547 259.183 399.149 247.06 397.66 234.308C396.12 221.116 400.224 206.968 408.46 196.569C416.732 186.123 427.7 180.627 440.785 179.127ZM442.381 212.265C438.181 213.355 434.818 215.427 432.528 219.246C429.969 223.513 429.505 228.859 430.756 233.621C431.839 237.742 434.152 241.844 437.912 244.045C440.423 245.514 442.913 245.858 445.771 245.587C449.115 245.421 452.4 243.483 454.606 241.003C457.855 237.349 459.359 232.189 459.015 227.346C458.692 222.8 456.803 218.145 453.285 215.147C450.182 212.502 446.803 211.853 442.856 212.218L442.381 212.265Z"/>
	<path fill="#525151" d="M327.985 30.6741C330.702 30.3297 333.605 30.5687 335.899 32.2078C338.717 34.2215 373.99 79.7114 374.182 80.8725C377.358 78.079 381.052 67.6565 383.381 63.4328C384.158 62.023 385.022 60.6882 386.664 60.2564C388.144 59.8675 389.732 60.3193 390.999 61.1112C393.34 62.5749 395.466 65.1818 396.087 67.9074C397.316 73.2955 395.166 103.411 393.775 109.597C392.649 114.604 390.817 119.449 388.095 123.812C382.987 132 374.191 140.273 364.55 142.529C363.997 142.906 363.134 143.105 362.491 143.282C354.112 145.591 344.23 144.117 336.743 139.775C333.481 137.884 330.845 135.059 328.342 132.275C324.089 127.544 295.493 91.7999 294.299 86.9011C293.727 84.5541 294.238 81.6062 295.508 79.5634C297.321 76.6455 300.091 75.3539 303.284 74.5659C299.875 70.0275 294.476 64.7432 292.844 59.2983C292.117 56.8719 292.272 54.0819 293.506 51.8444C295.345 48.509 298.835 47.323 302.271 46.3846C301.474 44.5707 301.2 42.9594 301.34 40.9705C301.517 38.468 302.63 36.1817 304.542 34.5428Q304.937 34.2052 305.365 33.9094Q305.792 33.6135 306.247 33.3623Q306.702 33.1111 307.18 32.9072Q307.659 32.7033 308.155 32.5488Q308.651 32.3943 309.16 32.2907Q309.67 32.1871 310.187 32.1355Q310.704 32.084 311.224 32.0849Q311.744 32.0859 312.261 32.1394C315.77 32.4992 318.264 34.2567 320.397 36.9401C322.531 33.9502 324.543 32.0375 327.985 30.6741Z"/>
	<path fill="#FBE522" d="M329 34.9539C330.202 34.9046 332.066 35.0639 333.05 35.8135C336.493 38.4367 339.565 43.4412 342.259 46.8857L362.849 73.2229C366.177 77.4803 369.414 82.2429 373.094 86.1834C373.829 86.9703 374.098 87.3334 375.141 87.5582C379.502 85.9393 384.326 67.7248 388.221 65.065C388.53 65.1152 388.792 65.1996 389.058 65.3735C390.471 66.2954 391.394 68.089 391.679 69.7022C392.609 74.9641 390.364 104.723 388.945 110.214Q388.505 111.963 387.906 113.663Q387.307 115.364 386.555 117.003Q385.802 118.641 384.902 120.203Q384.001 121.765 382.961 123.238C377.427 131.148 369.11 137.621 359.454 139.309C351.702 140.665 343.923 139.334 337.453 134.74Q334.477 132.591 332.062 129.827C325.288 122.187 319.23 113.633 312.991 105.542C308.844 100.165 304.058 94.7974 300.403 89.0984C299.616 87.8726 298.937 86.5093 298.715 85.0572C298.462 83.4025 298.919 82.3699 299.905 81.0687C300.736 79.9723 301.789 79.0498 303.207 78.8967C309.625 78.204 321.795 101.16 327.491 105.579C328.355 106.25 328.798 106.331 329.858 106.176C330.742 105.541 331.094 104.98 331.566 104.014C324.042 92.8358 315.045 82.4047 306.812 71.7231C303.215 67.0573 299.419 62.4478 296.473 57.3341C297.206 55.0976 297.819 53.0992 299.918 51.772C301.663 50.669 303.721 51.0204 305.395 52.0814C308.665 54.153 311.364 58.57 313.722 61.6346L328.368 80.7379C330.93 84.1071 333.431 88.0222 336.405 91.0081C337.262 91.8688 338.053 92.4422 339.246 92.7137C340.29 92.4702 340.339 92.388 341.034 91.5602C341.12 90.6971 341.177 90.3462 340.732 89.556C338.533 85.6517 334.931 81.8226 332.165 78.2504L314.538 55.4063C311.746 51.8192 306.485 46.7173 305.479 42.3702C305.257 41.4113 305.293 40.3624 305.858 39.5216C306.851 38.0438 308.855 36.7655 310.614 36.5075C312.05 36.297 313.2 36.6655 314.348 37.5141C318.791 40.8002 322.456 47.1846 325.812 51.6307L341.427 72.2403C343.268 74.662 345.326 78.2007 347.713 80.0492C348.69 80.3264 349.134 80.3247 350.109 80.0419C350.295 79.8008 350.636 79.4835 350.672 79.1827C350.81 78.0465 350.235 76.8798 349.693 75.9169C347.797 72.5541 344.985 69.3866 342.635 66.3148C337.699 59.8633 332.66 53.4794 327.801 46.9701C326.22 44.8521 323.812 41.8708 324.217 39.0828C325.16 37.1082 327.173 36.0039 329 34.9539Z"/>
</svg>
